<svg xmlns="http://www.w3.org/2000/svg" viewBox="0 0 340.86 35.2"><defs><style>.cls-1{fill:#fff;}.cls-2{fill:#fff;}</style></defs><title>logo_letsbora_1</title><g id="Camada_2" data-name="Camada 2"><g id="Camada_1-2" data-name="Camada 1"><polygon class="cls-1" points="52.2 5.84 60.47 5.84 60.47 31.42 65.96 31.42 65.96 5.84 74.25 5.84 74.25 0.46 52.2 0.46 52.2 5.84"/><path class="cls-1" d="M99.78,13.72l-2.28-.58c-4.27-1.09-5.6-1.76-5.6-3.78s1.85-3.95,5.4-3.95c3,0,4.79,1.36,5.77,4.4l.18.6,5.17-1.5-.17-.69c-1.6-5.3-5.49-8.22-11-8.22C91.07,0,86.37,4,86.37,9.32c0,6.51,5.63,8,9.74,9l.84.22,1.59.4c4.08,1,5.27,1.55,5.27,3.47,0,3-3.2,4-5.94,4-3.57,0-6.21-1.77-7-4.74L90.62,21l-5.28,1.44.18.73c1.43,5.29,6.28,8.7,12.35,8.7,6.75,0,11.46-3.88,11.46-9.43C109.33,16,103.58,14.64,99.78,13.72Z"/><path class="cls-1" d="M140.61,15.58a8.5,8.5,0,0,0,2.31-6.18c0-5.43-3.82-8.94-9.74-8.94H121.49v31h12.07c4.8,0,10-2.87,10-9.17A8.53,8.53,0,0,0,140.61,15.58ZM127,5.84h6.2c2.84,0,4.29,1.22,4.29,3.64,0,1,0,3.64-4.29,3.64H127ZM133.52,26H127V18.41h6.54c1.06,0,4.52.28,4.52,3.8S134.58,26,133.52,26Z"/><path class="cls-1" d="M160.71.08a15.54,15.54,0,0,0-15.55,15.86,15.52,15.52,0,1,0,31,0A15.5,15.5,0,0,0,160.71.08Zm0,26.23a10.1,10.1,0,0,1-10-10.37,10,10,0,1,1,20,0A10.09,10.09,0,0,1,160.68,26.31Z"/><path class="cls-1" d="M217.62.46h-4.23L201.54,29,195.8,18.65a9.05,9.05,0,0,0,5.37-8.56c0-5.67-4.28-9.63-10.4-9.63H179v31h5.49V19.68h5.72l6.43,11.74h9.86L209.14,25H222.2L225,31.42h6ZM190.7,14.3h-6.24V5.84h6.24c3.11,0,5,1.58,5,4.25S193.81,14.3,190.7,14.3Zm20.64,5.32,4.2-10.18,4.37,10.18Z"/><polygon class="cls-1" points="5.49 0.46 0 0.46 0 31.42 20.96 31.42 20.96 26 5.49 26 5.49 0.46"/><path class="cls-1" d="M36.64.08A15.65,15.65,0,0,0,21,16,15.77,15.77,0,0,0,36.64,31.87c5.54,0,10.17-2.16,13-6.09l.15-.18-4.17-3.27-.23.29c-1.86,2.56-5,4-8.73,4a10.16,10.16,0,0,1-10.1-8.43H52.32V14.92C52,6.32,45.35.08,36.64.08Zm-9.8,12.74a10,10,0,0,1,9.8-7.4,9.92,9.92,0,0,1,10,7.4Z"/><path class="cls-1" d="M85.37.45H76.94l-.67.7a4.93,4.93,0,0,1,1.91,2.72c.63,2.17-.1,4.58-2.55,5.29l.64,1.55C82.41,8.78,85.63,4.62,85.37.45Z"/><path class="cls-2" d="M238.81,5.89h.94l1.6,2.22a3.14,3.14,0,0,1,3.08-2.47c1.93,0,3.68,1.66,3.68,4.62s-1.46,4.79-3.8,4.79a3,3,0,0,1-2.82-1.67c0,1.87.07,4,.14,5.11a7.86,7.86,0,0,1-2.82,0C238.91,15.22,238.93,9.25,238.81,5.89Zm6.38,4.53c0-2.24-.62-3.49-1.69-3.49s-1.75,1.15-1.75,3.51c0,2.16.67,3.47,1.74,3.47S245.19,12.62,245.19,10.42Z"/><path class="cls-2" d="M258.19,12.24c-.34,1.83-2,2.84-4.16,2.84a4.48,4.48,0,0,1-4.82-4.78,4.38,4.38,0,0,1,4.68-4.66c2.91,0,4.32,1.75,4.25,4.54l-.35.2h-5.6v.11c0,2.61.48,4,1.89,4,.74,0,1.34-.46,1.34-1.7a3.7,3.7,0,0,0-.07-.76l.31-.14Zm-6-2.58h3a5.94,5.94,0,0,0,.13-1.44c0-1.24-.39-2-1.34-2S252.32,7.25,252.2,9.66Z"/><path class="cls-2" d="M259.22,10.26a4.73,4.73,0,0,1,9.46,0,4.73,4.73,0,1,1-9.46,0Zm6.49-.08c0-2.72-.66-3.91-1.76-3.91s-1.75,1.22-1.75,4,.65,4.15,1.77,4.15S265.71,13.12,265.71,10.18Z"/><path class="cls-2" d="M270.23,5.89h.94l1.6,2.22a3.14,3.14,0,0,1,3.08-2.47c1.93,0,3.69,1.66,3.69,4.62s-1.47,4.79-3.81,4.79a3,3,0,0,1-2.82-1.67c0,1.87.07,4,.14,5.11a7.86,7.86,0,0,1-2.82,0C270.33,15.22,270.35,9.25,270.23,5.89Zm6.38,4.53c0-2.24-.62-3.49-1.69-3.49s-1.75,1.15-1.75,3.51c0,2.16.67,3.47,1.74,3.47S276.61,12.62,276.61,10.42Z"/><path class="cls-2" d="M281.08,12.17c0-3.2,0-7.39-.05-9.91a8.25,8.25,0,0,1,2.89,0c-.05,2.52-.08,6.73-.08,9.91,0,1.22.19,1.86.77,1.86s.69-.41.69-1a2.5,2.5,0,0,0-.05-.47,2.67,2.67,0,0,0,.84.17,2.15,2.15,0,0,1-2.37,2.29C282.39,15.06,281.07,14.43,281.08,12.17Z"/><path class="cls-2" d="M295.65,12.24c-.35,1.83-2,2.84-4.17,2.84a4.48,4.48,0,0,1-4.81-4.78,4.38,4.38,0,0,1,4.68-4.66c2.9,0,4.31,1.75,4.25,4.54l-.35.2h-5.61v.11c0,2.61.48,4,1.9,4,.73,0,1.34-.46,1.34-1.7a3.7,3.7,0,0,0-.07-.76l.31-.14Zm-6-2.58h3a5.43,5.43,0,0,0,.14-1.44c0-1.24-.39-2-1.34-2S289.78,7.25,289.66,9.66Z"/><path class="cls-2" d="M309.43,10.13,306,9.94l.12,3.45a11.93,11.93,0,0,0-1.89,0l.1-3.45-3.42.19a10.59,10.59,0,0,0,0-1.38l3.42.17-.1-3.58a11.93,11.93,0,0,0,1.89,0L306,8.92l3.41-.17A8,8,0,0,0,309.43,10.13Z"/><path class="cls-2" d="M247.13,28.83c-.34,1.82-2,2.84-4.16,2.84a4.48,4.48,0,0,1-4.82-4.78,4.39,4.39,0,0,1,4.68-4.67c2.91,0,4.32,1.76,4.25,4.55l-.34.2h-5.61v.11c0,2.61.48,4,1.89,4,.74,0,1.34-.46,1.34-1.7a3.66,3.66,0,0,0-.06-.76l.31-.14Zm-6-2.58h3a5.89,5.89,0,0,0,.14-1.44c0-1.24-.4-2-1.34-2S241.27,23.84,241.15,26.25Z"/><path class="cls-2" d="M256.76,31.41a14.89,14.89,0,0,0-3.27,0c-.71-1.31-1.43-2.37-2.14-3.49-.7,1.19-1.37,2.58-1.79,3.49a9.48,9.48,0,0,0-2.13,0,50.11,50.11,0,0,0,3.36-4.32c-.69-1-1.83-2.51-3.36-4.61a14.62,14.62,0,0,0,3.24,0c.56,1.17,1.29,2.38,1.89,3.36a23.51,23.51,0,0,0,1.63-3.36,9.16,9.16,0,0,0,2.22,0,51.47,51.47,0,0,0-3.32,4.17C254,27.92,255.12,29.35,256.76,31.41Z"/><path class="cls-2" d="M257.87,22.48h.94l1.6,2.22a3.15,3.15,0,0,1,3.08-2.48c1.93,0,3.68,1.67,3.68,4.63s-1.46,4.79-3.8,4.79A3,3,0,0,1,260.55,30c0,1.87.07,4,.14,5.11a7.86,7.86,0,0,1-2.82,0C258,31.81,258,25.84,257.87,22.48ZM264.25,27c0-2.24-.62-3.49-1.69-3.49s-1.75,1.15-1.75,3.5c0,2.17.67,3.48,1.74,3.48S264.25,29.21,264.25,27Z"/><path class="cls-2" d="M277.25,28.83c-.35,1.82-2,2.84-4.17,2.84a4.48,4.48,0,0,1-4.81-4.78A4.39,4.39,0,0,1,273,22.22c2.9,0,4.31,1.76,4.25,4.55l-.35.2h-5.61v.11c0,2.61.48,4,1.9,4,.74,0,1.34-.46,1.34-1.7a3.64,3.64,0,0,0-.07-.76l.31-.14Zm-6-2.58h3a5.43,5.43,0,0,0,.14-1.44c0-1.24-.39-2-1.34-2S271.38,23.84,271.26,26.25Z"/><path class="cls-2" d="M278.8,22.48h1l1.52,2.21a3,3,0,0,1,3-2.47,2.09,2.09,0,0,1,2.22,2.31,4.59,4.59,0,0,1-.07.81l-2.42.72-.19,0c.39-1.67.05-2.57-.71-2.57-1,0-1.41,1.24-1.41,3.07,0,1.53,0,3.21,0,4.88a17.43,17.43,0,0,0-2.89,0C278.9,28.4,278.9,25.49,278.8,22.48Z"/><path class="cls-2" d="M287.54,19.92a1.54,1.54,0,1,1,1.53,1.36A1.41,1.41,0,0,1,287.54,19.92Zm.06,2.56a15.39,15.39,0,0,0,2.88,0c-.09,3-.09,5.94,0,8.93a17.31,17.31,0,0,0-2.88,0C287.67,28.42,287.67,25.48,287.6,22.48Z"/><path class="cls-2" d="M301,28.83c-.35,1.82-2,2.84-4.17,2.84A4.48,4.48,0,0,1,292,26.89a4.39,4.39,0,0,1,4.68-4.67c2.9,0,4.31,1.76,4.25,4.55l-.35.2H295v.11c0,2.61.49,4,1.9,4,.74,0,1.34-.46,1.34-1.7a3.64,3.64,0,0,0-.07-.76l.31-.14Zm-6-2.58h3a5.43,5.43,0,0,0,.14-1.44c0-1.24-.39-2-1.34-2S295.1,23.84,295,26.25Z"/><path class="cls-2" d="M311.4,31.41a17.07,17.07,0,0,0-2.86,0c0-1.82,0-3.34,0-5.26,0-1.52-.28-2.7-1.41-2.69s-1.71,1.21-1.71,3.55c0,1.1,0,2.77,0,4.4a17.43,17.43,0,0,0-2.89,0c.08-3,.1-5.92,0-8.93h1L305,24.75a3.06,3.06,0,0,1,3.14-2.53c1.93,0,3.19,1.21,3.2,4C311.38,28,311.4,29.66,311.4,31.41Z"/><path class="cls-2" d="M312.8,26.89a4.42,4.42,0,0,1,4.73-4.67c2.32,0,3.94,1.23,4.28,3L319,25.7l-.32-.12a5.07,5.07,0,0,0,.22-1.34c0-1-.55-1.4-1.17-1.4-1.22,0-1.93,1.26-1.93,4s.73,4.17,1.9,4.17c.6,0,1.25-.45,1.25-1.64a4,4,0,0,0-.22-1.32l.31-.12,2.9.46c-.34,2-2.11,3.24-4.38,3.24A4.48,4.48,0,0,1,312.8,26.89Z"/><path class="cls-2" d="M331.83,28.83c-.35,1.82-2,2.84-4.17,2.84a4.47,4.47,0,0,1-4.81-4.78,4.38,4.38,0,0,1,4.67-4.67c2.91,0,4.32,1.76,4.25,4.55l-.34.2h-5.61v.11c0,2.61.48,4,1.89,4,.74,0,1.35-.46,1.35-1.7a3.64,3.64,0,0,0-.07-.76l.31-.14Zm-6-2.58h3a5.43,5.43,0,0,0,.14-1.44c0-1.24-.4-2-1.34-2S326,23.84,325.84,26.25Z"/><path class="cls-2" d="M332.72,30.38l1-2.34.24.07c.26,1.72,1.31,2.89,2.82,2.89,1,0,1.43-.52,1.43-1,0-.93-1-1.53-2-2.08-1.38-.74-3.05-1.62-3.05-3.2s1.53-2.47,3.93-2.47a6.63,6.63,0,0,1,3.71,1l-1.13,2-.23-.05c-.44-1.31-.93-2.34-2.41-2.34-1,0-1.29.41-1.29.91,0,.93,1.09,1.53,2.26,2.17,1.56.84,2.91,1.62,2.91,3s-1.48,2.65-4.05,2.65A7.15,7.15,0,0,1,332.72,30.38Z"/></g></g></svg>