<svg xmlns="http://www.w3.org/2000/svg" viewBox="0 0 20.63 20.73"><defs><style>.cls-1{fill:#2c2c33;}</style></defs><title>icon_agenda</title><g id="Camada_2" data-name="Camada 2"><g id="Camada_1-2" data-name="Camada 1"><path class="cls-1" d="M20.12,20.73H.52A.52.52,0,0,1,0,20.21V.52A.52.52,0,0,1,.52,0h19.6a.51.51,0,0,1,.51.52V20.21A.51.51,0,0,1,20.12,20.73ZM1,19.7H19.6V1H1Z"/><path class="cls-1" d="M20.12,5.48H.52a.52.52,0,1,1,0-1h19.6a.52.52,0,0,1,0,1Z"/><path class="cls-1" d="M10.32,16.72H6.87a.52.52,0,1,1,0-1H9.8V9.54H6.87a.52.52,0,1,1,0-1h3.45a.51.51,0,0,1,.51.51v7.19A.51.51,0,0,1,10.32,16.72Z"/><path class="cls-1" d="M13.77,16.72H10.32a.52.52,0,1,1,0-1h3.45a.52.52,0,0,1,0,1Z"/></g></g></svg>