<svg xmlns="http://www.w3.org/2000/svg" viewBox="0 0 15.7 20.73"><defs><style>.cls-1{fill:#2c2c33;}</style></defs><title>icon_pin</title><g id="Camada_2" data-name="Camada 2"><g id="Camada_1-2" data-name="Camada 1"><path class="cls-1" d="M7.85,20.73a.49.49,0,0,1-.38-.18C7.16,20.21,0,12.09,0,7.88a7.85,7.85,0,1,1,15.7,0c0,4.21-7.16,12.33-7.46,12.67A.53.53,0,0,1,7.85,20.73ZM7.85,1A6.84,6.84,0,0,0,1,7.88c0,3.31,5.33,9.79,6.82,11.54,1.5-1.75,6.82-8.24,6.82-11.54A6.84,6.84,0,0,0,7.85,1Z"/><path class="cls-1" d="M7.85,10.88A2.87,2.87,0,1,1,10.71,8,2.87,2.87,0,0,1,7.85,10.88Zm0-4.71A1.84,1.84,0,1,0,9.68,8,1.83,1.83,0,0,0,7.85,6.17Z"/></g></g></svg>