<svg xmlns="http://www.w3.org/2000/svg" viewBox="0 0 18.58 20.73"><defs><style>.cls-1{fill:#2c2c33;}</style></defs><title>icon_user</title><g id="Camada_2" data-name="Camada 2"><g id="Camada_1-2" data-name="Camada 1"><path class="cls-1" d="M9.29,11.88A5.94,5.94,0,1,1,15.2,5.94,5.93,5.93,0,0,1,9.29,11.88ZM9.29,1a4.91,4.91,0,1,0,4.88,4.91A4.9,4.9,0,0,0,9.29,1Z"/><path class="cls-1" d="M18.06,20.73a.51.51,0,0,1-.51-.52A8.26,8.26,0,1,0,1,20.21a.52.52,0,1,1-1,0,9.29,9.29,0,1,1,18.58,0A.52.52,0,0,1,18.06,20.73Z"/></g></g></svg>