<svg xmlns="http://www.w3.org/2000/svg" viewBox="0 0 20.71 20.73"><defs><style>.cls-1{fill:#2c2c33;}</style></defs><title>icon_check</title><g id="Camada_2" data-name="Camada 2"><g id="Camada_1-2" data-name="Camada 1"><path class="cls-1" d="M10.36,20.73A10.37,10.37,0,1,1,20.71,10.36,10.38,10.38,0,0,1,10.36,20.73Zm0-19.7a9.34,9.34,0,1,0,9.32,9.33A9.34,9.34,0,0,0,10.36,1Z"/><path class="cls-1" d="M9.42,14.53a.51.51,0,0,1-.37-.15L5.58,10.91a.52.52,0,0,1,.73-.73l3.11,3.11L16,6.71a.52.52,0,1,1,.73.73L9.78,14.38A.51.51,0,0,1,9.42,14.53Z"/></g></g></svg>