<svg xmlns="http://www.w3.org/2000/svg" viewBox="0 0 20.65 20.73"><defs><style>.cls-1{fill:#2c2c33;}</style></defs><title>icon_close</title><g id="Camada_2" data-name="Camada 2"><g id="Camada_1-2" data-name="Camada 1"><path class="cls-1" d="M10.33,20.73a10.25,10.25,0,0,1-7.31-3A10.39,10.39,0,0,1,3,3a10.25,10.25,0,0,1,7.31-3h0a10.23,10.23,0,0,1,7.3,3,10.39,10.39,0,0,1,0,14.65A10.23,10.23,0,0,1,10.33,20.73Zm0-19.7A9.24,9.24,0,0,0,3.75,3.76a9.36,9.36,0,0,0,0,13.2A9.26,9.26,0,0,0,16.9,17h0a9.36,9.36,0,0,0,0-13.2A9.21,9.21,0,0,0,10.33,1Z"/><path class="cls-1" d="M6.31,14.91A.51.51,0,0,1,6,14.76.52.52,0,0,1,6,14L14,6a.52.52,0,0,1,.73.73l-8,8.06A.53.53,0,0,1,6.31,14.91Z"/><path class="cls-1" d="M14.34,14.91a.51.51,0,0,1-.36-.15L6,6.7A.52.52,0,1,1,6.68,6l8,8.06a.52.52,0,0,1,0,.73A.53.53,0,0,1,14.34,14.91Z"/></g></g></svg>